<?xml version="1.0" encoding="UTF-8" standalone="no"?>
<!DOCTYPE svg PUBLIC "-//W3C//DTD SVG 1.1//EN" "http://www.w3.org/Graphics/SVG/1.1/DTD/svg11.dtd">
<!-- Created with Vectornator (http://vectornator.io/) -->
<svg height="100%" stroke-miterlimit="10" style="fill-rule:nonzero;clip-rule:evenodd;stroke-linecap:round;stroke-linejoin:round;" version="1.1" viewBox="0 0 1024 1024" width="100%" xml:space="preserve" xmlns="http://www.w3.org/2000/svg" xmlns:xlink="http://www.w3.org/1999/xlink">
<defs/>
<g id="레이어-1">
<path d="M593.781 101.75L393.812 217.219L393.781 217.219L393.781 313.188L393.531 313.031L230.25 407.312L230.219 407.312L230.219 827.969L230.25 827.969L393.531 922.25L421.906 905.875L556.812 827.969L556.844 827.969L556.844 826.469L593.781 847.781L628.531 827.719L793.75 732.344L793.781 732.344L793.781 732.312L793.781 391.375L793.781 217.219L793.75 217.219L593.781 101.75Z" fill="#ffffff" fill-rule="nonzero" opacity="1" stroke="none"/>
<g opacity="1">
<g opacity="1">
<g opacity="1">
<path d="M746.205 280.451L734.361 287.295L734.361 400.545L733.736 400.92L746.205 408.107L746.205 280.451Z" fill="#1c256f" fill-opacity="0.75" fill-rule="nonzero" opacity="1" stroke="none"/>
<path d="M746.205 280.451L734.361 287.295L734.361 400.545L733.736 400.92L696.205 422.576L696.205 438.107L746.205 409.232L746.205 408.107L746.205 280.451Z" fill="#1c256f" fill-opacity="0.8" fill-rule="nonzero" opacity="1" stroke="none"/>
<path d="M734.361 287.295L696.205 309.326L696.205 379.232L696.205 380.357L696.205 422.576L733.736 400.92L734.361 400.545L734.361 287.295Z" fill="#1c256f" fill-opacity="0" fill-rule="nonzero" opacity="1" stroke="none"/>
</g>
<g opacity="1">
<path d="M671.79 320.473L659.946 327.316L659.946 440.566L659.321 440.941L671.79 448.129L671.79 320.473Z" fill="#1c256f" fill-opacity="0.75" fill-rule="nonzero" opacity="1" stroke="none"/>
<path d="M671.79 320.473L659.946 327.316L659.946 440.566L659.321 440.941L621.79 462.598L621.79 478.129L671.79 449.254L671.79 448.129L671.79 320.473Z" fill="#1c256f" fill-opacity="0.8" fill-rule="nonzero" opacity="1" stroke="none"/>
<path d="M659.946 327.316L621.79 349.348L621.79 419.254L621.79 420.379L621.79 462.598L659.321 440.941L659.946 440.566L659.946 327.316Z" fill="#1c256f" fill-opacity="0" fill-rule="nonzero" opacity="1" stroke="none"/>
</g>
<g opacity="1">
<path d="M593.79 101.754L393.821 217.223L593.79 332.66L793.758 217.223L593.79 101.754Z" fill="#1c256f" fill-opacity="0.5" fill-rule="nonzero" opacity="1" stroke="none"/>
<path d="M393.79 217.223L393.79 313.191L556.821 407.316L556.852 407.316L556.852 549.535L556.852 826.473L593.79 847.785L593.79 616.879L593.79 332.66L393.821 217.223L393.79 217.223Z" fill="#1c256f" fill-rule="nonzero" opacity="1" stroke="none"/>
<path d="M793.758 217.223L593.79 332.66L593.79 616.879L593.79 847.785L628.54 827.723L793.758 732.348L793.79 732.348L793.79 732.316L793.79 391.379L793.79 217.223L793.758 217.223ZM746.196 280.441L746.196 408.098L746.196 409.223L696.196 438.098L696.196 422.566L696.196 380.348L696.196 379.223L696.196 309.316L734.352 287.285L746.196 280.441ZM671.79 320.473L671.79 449.254L621.79 478.129L621.79 420.379L621.79 349.348L671.79 320.473ZM780.946 434.566L780.946 562.223L780.946 563.348L730.946 592.223L730.946 576.691L730.946 534.473L730.946 533.348L730.946 463.441L769.102 441.41L780.946 434.566ZM706.54 474.598L706.54 603.379L656.54 632.254L656.54 574.504L656.54 503.473L706.54 474.598Z" fill="#1c256f" fill-opacity="0.75" fill-rule="nonzero" opacity="1" stroke="none"/>
</g>
<g opacity="1">
<path d="M780.954 434.582L769.111 441.425L769.111 554.675L768.486 555.05L780.954 562.238L780.954 434.582Z" fill="#1c256f" fill-opacity="0.75" fill-rule="nonzero" opacity="1" stroke="none"/>
<path d="M780.954 434.582L769.111 441.425L769.111 554.675L768.486 555.05L730.954 576.707L730.954 592.238L780.954 563.363L780.954 562.238L780.954 434.582Z" fill="#1c256f" fill-opacity="0.8" fill-rule="nonzero" opacity="1" stroke="none"/>
<path d="M769.111 441.425L730.954 463.457L730.954 533.363L730.954 534.488L730.954 576.707L768.486 555.05L769.111 554.675L769.111 441.425Z" fill="#1c256f" fill-opacity="0" fill-rule="nonzero" opacity="1" stroke="none"/>
</g>
<g opacity="1">
<path d="M706.539 474.603L694.695 481.447L694.695 594.697L694.07 595.072L706.539 602.259L706.539 474.603Z" fill="#1c256f" fill-opacity="0.75" fill-rule="nonzero" opacity="1" stroke="none"/>
<path d="M706.539 474.603L694.695 481.447L694.695 594.697L694.07 595.072L656.539 616.728L656.539 632.259L706.539 603.384L706.539 602.259L706.539 474.603Z" fill="#1c256f" fill-opacity="0.8" fill-rule="nonzero" opacity="1" stroke="none"/>
<path d="M694.695 481.447L656.539 503.478L656.539 573.384L656.539 574.509L656.539 616.728L694.07 595.072L694.695 594.697L694.695 481.447Z" fill="#1c256f" fill-opacity="0" fill-rule="nonzero" opacity="1" stroke="none"/>
</g>
</g>
<g opacity="1">
<g opacity="1">
<path d="M517.994 458.958L508.323 464.547L508.323 557.027L507.812 557.333L517.994 563.203L517.994 458.958Z" fill="#1c256f" fill-opacity="0.75" fill-rule="nonzero" opacity="1" stroke="none"/>
<path d="M517.994 458.958L508.323 464.547L508.323 557.027L507.812 557.333L477.164 575.018L477.164 587.701L517.994 564.122L517.994 563.203L517.994 458.958Z" fill="#1c256f" fill-opacity="0.8" fill-rule="nonzero" opacity="1" stroke="none"/>
<path d="M508.323 464.547L477.164 482.538L477.164 539.623L477.164 540.542L477.164 575.018L507.812 557.333L508.323 557.027L508.323 464.547Z" fill="#1c256f" fill-opacity="0" fill-rule="nonzero" opacity="1" stroke="none"/>
</g>
<g opacity="1">
<path d="M457.227 491.64L447.555 497.229L447.555 589.709L447.044 590.015L457.227 595.885L457.227 491.64Z" fill="#1c256f" fill-opacity="0.75" fill-rule="nonzero" opacity="1" stroke="none"/>
<path d="M457.227 491.64L447.555 497.229L447.555 589.709L447.044 590.015L416.396 607.7L416.396 620.383L457.227 596.803L457.227 595.885L457.227 491.64Z" fill="#1c256f" fill-opacity="0.8" fill-rule="nonzero" opacity="1" stroke="none"/>
<path d="M447.555 497.229L416.396 515.219L416.396 572.305L416.396 573.224L416.396 607.7L447.044 590.015L447.555 589.709L447.555 497.229Z" fill="#1c256f" fill-opacity="0" fill-rule="nonzero" opacity="1" stroke="none"/>
</g>
<g opacity="1">
<path d="M393.531 313.033L230.236 407.325L393.531 501.592L556.827 407.325L393.531 313.033Z" fill="#1c256f" fill-opacity="0.5" fill-rule="nonzero" opacity="1" stroke="none"/>
<path d="M230.21 407.325L230.21 827.954L230.236 827.979L393.531 922.246L393.531 733.687L393.531 501.592L230.236 407.325L230.21 407.325Z" fill="#1c256f" fill-rule="nonzero" opacity="1" stroke="none"/>
<path d="M556.827 407.325L393.531 501.592L393.531 733.687L393.531 922.246L421.908 905.863L556.827 827.979L556.852 827.979L556.852 827.954L556.852 549.542L556.852 407.325L556.827 407.325ZM517.987 458.95L517.987 563.195L517.987 564.114L477.157 587.693L477.157 575.01L477.157 540.534L477.157 539.616L477.157 482.53L508.315 464.539L517.987 458.95ZM457.227 491.64L457.227 596.803L416.396 620.383L416.396 573.224L416.396 515.219L457.227 491.64ZM546.364 584.809L546.364 689.054L546.364 689.973L505.534 713.552L505.534 700.869L505.534 666.393L505.534 665.475L505.534 608.389L536.692 590.398L546.364 584.809ZM485.604 617.499L485.604 722.663L444.773 746.242L444.773 699.083L444.773 641.079L485.604 617.499Z" fill="#1c256f" fill-opacity="0.75" fill-rule="nonzero" opacity="1" stroke="none"/>
</g>
<g opacity="1">
<path d="M546.371 584.822L536.699 590.41L536.699 682.891L536.189 683.197L546.371 689.067L546.371 584.822Z" fill="#1c256f" fill-opacity="0.75" fill-rule="nonzero" opacity="1" stroke="none"/>
<path d="M546.371 584.822L536.699 590.41L536.699 682.891L536.189 683.197L505.541 700.882L505.541 713.565L546.371 689.985L546.371 689.067L546.371 584.822Z" fill="#1c256f" fill-opacity="0.8" fill-rule="nonzero" opacity="1" stroke="none"/>
<path d="M536.699 590.41L505.541 608.401L505.541 665.487L505.541 666.406L505.541 700.882L536.189 683.197L536.699 682.891L536.699 590.41Z" fill="#1c256f" fill-opacity="0" fill-rule="nonzero" opacity="1" stroke="none"/>
</g>
<g opacity="1">
<path d="M485.603 617.504L475.931 623.092L475.931 715.573L475.421 715.879L485.603 721.748L485.603 617.504Z" fill="#1c256f" fill-opacity="0.75" fill-rule="nonzero" opacity="1" stroke="none"/>
<path d="M485.603 617.504L475.931 623.092L475.931 715.573L475.421 715.879L444.773 733.564L444.773 746.247L485.603 722.667L485.603 721.748L485.603 617.504Z" fill="#1c256f" fill-opacity="0.8" fill-rule="nonzero" opacity="1" stroke="none"/>
<path d="M475.931 623.092L444.773 641.083L444.773 698.169L444.773 699.088L444.773 733.564L475.421 715.879L475.931 715.573L475.931 623.092Z" fill="#1c256f" fill-opacity="0" fill-rule="nonzero" opacity="1" stroke="none"/>
</g>
</g>
</g>
</g>
</svg>